<svg width="70" height="100" viewBox="0 0 70 100" fill="none" xmlns="http://www.w3.org/2000/svg">
<path fill-rule="evenodd" clip-rule="evenodd" d="M13.781 38.3562L0.5 16.2972L22.5268 22.7379L35.1173 0L47.6293 22.7379L69.5 16.2972L54.7686 41.1118C54.7718 41.114 54.7745 41.1163 54.7777 41.1185L54.4888 41.5834L54.4071 41.7208L54.4043 41.7188L51.183 46.8982C46.8227 43.5372 41.3594 41.5384 35.4294 41.5384C21.1624 41.5384 9.59674 53.1078 9.59674 67.379C9.59674 81.6507 21.1624 93.2201 35.4294 93.2201C41.3768 93.2201 46.8551 91.2096 51.2213 87.8306L54.7417 93.6667C49.3356 97.6475 42.6569 100 35.4292 100C17.4191 100 2.8191 85.395 2.8191 67.3795C2.8191 49.3635 17.4191 34.7589 35.4292 34.7589C40.4087 34.7589 45.1276 35.8753 49.3493 37.8716L55.7624 27.1968L44.4754 30.4301L35.1173 13.7157L26.0719 30.4301L14.863 27.1968L19.1481 35.1598L13.781 38.3562Z" fill="#082350"/>
</svg>
