<svg width="224" height="363" viewBox="0 0 224 363" fill="none" xmlns="http://www.w3.org/2000/svg">
<path fill-rule="evenodd" clip-rule="evenodd" d="M43.1152 143.89L0 72.6399L71.5073 93.4433L112.381 20L153 93.4433L224 72.6399L176.176 152.791C176.187 152.798 176.196 152.806 176.206 152.813L175.268 154.314L175.003 154.758L174.994 154.752L164.536 171.481C150.381 160.625 132.645 154.169 113.394 154.169C67.0779 154.169 29.5315 191.538 29.5315 237.634C29.5315 283.732 67.0779 321.101 113.394 321.101C132.702 321.101 150.486 314.607 164.661 303.693L176.089 322.543C158.539 335.401 136.857 343 113.393 343C54.9259 343 7.52868 295.826 7.52868 237.636C7.52868 179.444 54.9259 132.271 113.393 132.271C129.559 132.271 144.878 135.877 158.583 142.325L179.402 107.846L142.761 118.289L112.381 64.3017L83.0161 118.289L46.6278 107.846L60.5387 133.566L43.1152 143.89Z" fill="#FFD700"/>
</svg>
