<svg width="1260" height="227" viewBox="0 0 1260 227" fill="none" xmlns="http://www.w3.org/2000/svg">
<rect width="1260" height="227" rx="24" fill="#183769"/>
<path d="M32.1491 63V38.2727H41.9048C43.7803 38.2727 45.3781 38.6309 46.6982 39.3473C48.0182 40.0556 49.0244 41.0417 49.7166 42.3054C50.4169 43.5611 50.767 45.0099 50.767 46.652C50.767 48.294 50.4129 49.7429 49.7045 50.9986C48.9962 52.2543 47.9699 53.2322 46.6257 53.9325C45.2895 54.6328 43.6716 54.983 41.772 54.983H35.554V50.7933H40.9268C41.933 50.7933 42.7621 50.6203 43.4141 50.2741C44.0741 49.92 44.5651 49.433 44.8871 48.8132C45.2171 48.1854 45.3821 47.465 45.3821 46.652C45.3821 45.831 45.2171 45.1146 44.8871 44.5028C44.5651 43.883 44.0741 43.4041 43.4141 43.0661C42.754 42.7199 41.9169 42.5469 40.9027 42.5469H37.3771V63H32.1491ZM62.1467 63.3622C60.2712 63.3622 58.6493 62.9638 57.2809 62.1669C55.9206 61.362 54.8701 60.2431 54.1296 58.8104C53.3891 57.3696 53.0188 55.6993 53.0188 53.7997C53.0188 51.884 53.3891 50.2098 54.1296 48.777C54.8701 47.3362 55.9206 46.2173 57.2809 45.4205C58.6493 44.6155 60.2712 44.2131 62.1467 44.2131C64.0221 44.2131 65.64 44.6155 67.0004 45.4205C68.3687 46.2173 69.4232 47.3362 70.1637 48.777C70.9042 50.2098 71.2745 51.884 71.2745 53.7997C71.2745 55.6993 70.9042 57.3696 70.1637 58.8104C69.4232 60.2431 68.3687 61.362 67.0004 62.1669C65.64 62.9638 64.0221 63.3622 62.1467 63.3622ZM62.1708 59.3778C63.024 59.3778 63.7364 59.1364 64.3079 58.6534C64.8794 58.1624 65.31 57.4943 65.5998 56.6491C65.8976 55.804 66.0465 54.8421 66.0465 53.7635C66.0465 52.6849 65.8976 51.723 65.5998 50.8778C65.31 50.0327 64.8794 49.3646 64.3079 48.8736C63.7364 48.3826 63.024 48.1371 62.1708 48.1371C61.3095 48.1371 60.5851 48.3826 59.9975 48.8736C59.418 49.3646 58.9793 50.0327 58.6815 50.8778C58.3917 51.723 58.2468 52.6849 58.2468 53.7635C58.2468 54.8421 58.3917 55.804 58.6815 56.6491C58.9793 57.4943 59.418 58.1624 59.9975 58.6534C60.5851 59.1364 61.3095 59.3778 62.1708 59.3778ZM90.0494 49.7429L85.3406 50.0327C85.2601 49.6302 85.087 49.268 84.8214 48.946C84.5558 48.616 84.2056 48.3544 83.771 48.1612C83.3443 47.96 82.8332 47.8594 82.2376 47.8594C81.4407 47.8594 80.7686 48.0284 80.2212 48.3665C79.6739 48.6965 79.4002 49.1392 79.4002 49.6946C79.4002 50.1373 79.5773 50.5116 79.9315 50.8175C80.2856 51.1233 80.8933 51.3688 81.7546 51.554L85.1112 52.2301C86.9142 52.6004 88.2584 53.196 89.1438 54.017C90.0292 54.8381 90.4719 55.9167 90.4719 57.2528C90.4719 58.4683 90.1138 59.5348 89.3974 60.4524C88.689 61.37 87.7151 62.0864 86.4755 62.6016C85.244 63.1087 83.8233 63.3622 82.2134 63.3622C79.7584 63.3622 77.8024 62.8511 76.3455 61.8288C74.8967 60.7985 74.0475 59.398 73.7979 57.6271L78.8569 57.3615C79.0098 58.1101 79.3801 58.6816 79.9677 59.076C80.5553 59.4624 81.3079 59.6555 82.2255 59.6555C83.127 59.6555 83.8514 59.4825 84.3988 59.1364C84.9542 58.7822 85.2359 58.3274 85.244 57.772C85.2359 57.3052 85.0387 56.9228 84.6523 56.625C84.266 56.3191 83.6703 56.0857 82.8654 55.9247L79.6538 55.2848C77.8427 54.9226 76.4944 54.2947 75.609 53.4013C74.7317 52.5078 74.293 51.3688 74.293 49.9844C74.293 48.7931 74.6149 47.7668 75.2589 46.9055C75.9109 46.0443 76.8245 45.3802 77.9996 44.9134C79.1829 44.4465 80.5674 44.2131 82.1531 44.2131C84.4954 44.2131 86.3387 44.7081 87.6829 45.6982C89.0352 46.6882 89.824 48.0365 90.0494 49.7429ZM103.575 44.4545V48.3182H92.4068V44.4545H103.575ZM94.9423 40.0114H100.086V57.3011C100.086 57.776 100.158 58.1463 100.303 58.4119C100.448 58.6695 100.649 58.8506 100.907 58.9553C101.172 59.0599 101.478 59.1122 101.824 59.1122C102.066 59.1122 102.307 59.0921 102.549 59.0518C102.79 59.0036 102.975 58.9673 103.104 58.9432L103.913 62.7706C103.656 62.8511 103.293 62.9437 102.827 63.0483C102.36 63.161 101.792 63.2294 101.124 63.2536C99.8845 63.3018 98.7979 63.1368 97.8642 62.7585C96.9385 62.3802 96.2181 61.7926 95.7029 60.9957C95.1878 60.1989 94.9342 59.1927 94.9423 57.9773V40.0114ZM120.083 63.3501C118.9 63.3501 117.845 63.1449 116.92 62.7344C115.994 62.3158 115.262 61.7 114.722 60.8871C114.191 60.0661 113.925 59.0438 113.925 57.8203C113.925 56.79 114.115 55.9247 114.493 55.2244C114.871 54.5241 115.386 53.9607 116.038 53.5341C116.69 53.1075 117.431 52.7855 118.26 52.5682C119.097 52.3509 119.974 52.1979 120.892 52.1094C121.971 51.9967 122.84 51.892 123.5 51.7955C124.16 51.6908 124.639 51.5379 124.937 51.3366C125.235 51.1354 125.384 50.8376 125.384 50.4432V50.3707C125.384 49.6061 125.142 49.0144 124.659 48.5959C124.184 48.1773 123.508 47.968 122.631 47.968C121.705 47.968 120.969 48.1733 120.421 48.5838C119.874 48.9863 119.512 49.4934 119.335 50.1051L114.577 49.7188C114.819 48.5919 115.294 47.6179 116.002 46.7969C116.71 45.9678 117.624 45.3319 118.743 44.8892C119.87 44.4384 121.174 44.2131 122.655 44.2131C123.685 44.2131 124.671 44.3338 125.613 44.5753C126.563 44.8168 127.404 45.1911 128.136 45.6982C128.877 46.2053 129.46 46.8572 129.887 47.6541C130.314 48.4429 130.527 49.3887 130.527 50.4915V63H125.649V60.4283H125.504C125.206 61.0078 124.808 61.5189 124.309 61.9616C123.81 62.3963 123.21 62.7384 122.51 62.9879C121.81 63.2294 121.001 63.3501 120.083 63.3501ZM121.556 59.8004C122.313 59.8004 122.981 59.6515 123.56 59.3537C124.14 59.0478 124.595 58.6373 124.925 58.1222C125.255 57.607 125.42 57.0234 125.42 56.3714V54.4034C125.259 54.508 125.037 54.6046 124.756 54.6932C124.482 54.7737 124.172 54.8501 123.826 54.9226C123.48 54.987 123.134 55.0473 122.788 55.1037C122.442 55.152 122.128 55.1963 121.846 55.2365C121.242 55.325 120.715 55.4659 120.264 55.6591C119.813 55.8523 119.463 56.1139 119.214 56.4439C118.964 56.7659 118.839 57.1683 118.839 57.6513C118.839 58.3516 119.093 58.8868 119.6 59.2571C120.115 59.6193 120.767 59.8004 121.556 59.8004ZM150.766 63.3622C148.866 63.3622 147.232 62.9598 145.864 62.1548C144.503 61.3419 143.457 60.215 142.725 58.7741C142 57.3333 141.638 55.6752 141.638 53.7997C141.638 51.9001 142.004 50.2339 142.737 48.8011C143.477 47.3603 144.528 46.2375 145.888 45.4325C147.248 44.6196 148.866 44.2131 150.742 44.2131C152.36 44.2131 153.776 44.5069 154.992 45.0945C156.207 45.6821 157.169 46.5071 157.877 47.5696C158.586 48.6321 158.976 49.8797 159.048 51.3125H154.195C154.058 50.3868 153.696 49.6423 153.108 49.0788C152.529 48.5073 151.768 48.2216 150.826 48.2216C150.029 48.2216 149.333 48.4389 148.737 48.8736C148.15 49.3002 147.691 49.924 147.361 50.745C147.031 51.5661 146.866 52.5601 146.866 53.7273C146.866 54.9105 147.027 55.9167 147.349 56.7457C147.679 57.5748 148.142 58.2067 148.737 58.6413C149.333 59.076 150.029 59.2933 150.826 59.2933C151.414 59.2933 151.941 59.1726 152.408 58.9311C152.883 58.6896 153.273 58.3395 153.579 57.8807C153.893 57.4138 154.098 56.8544 154.195 56.2024H159.048C158.968 57.6191 158.582 58.8667 157.889 59.9453C157.205 61.0159 156.259 61.853 155.052 62.4567C153.845 63.0604 152.416 63.3622 150.766 63.3622ZM170.721 63.3622C168.845 63.3622 167.223 62.9638 165.855 62.1669C164.495 61.362 163.444 60.2431 162.704 58.8104C161.963 57.3696 161.593 55.6993 161.593 53.7997C161.593 51.884 161.963 50.2098 162.704 48.777C163.444 47.3362 164.495 46.2173 165.855 45.4205C167.223 44.6155 168.845 44.2131 170.721 44.2131C172.596 44.2131 174.214 44.6155 175.575 45.4205C176.943 46.2173 177.997 47.3362 178.738 48.777C179.478 50.2098 179.849 51.884 179.849 53.7997C179.849 55.6993 179.478 57.3696 178.738 58.8104C177.997 60.2431 176.943 61.362 175.575 62.1669C174.214 62.9638 172.596 63.3622 170.721 63.3622ZM170.745 59.3778C171.598 59.3778 172.311 59.1364 172.882 58.6534C173.454 58.1624 173.884 57.4943 174.174 56.6491C174.472 55.804 174.621 54.8421 174.621 53.7635C174.621 52.6849 174.472 51.723 174.174 50.8778C173.884 50.0327 173.454 49.3646 172.882 48.8736C172.311 48.3826 171.598 48.1371 170.745 48.1371C169.884 48.1371 169.159 48.3826 168.572 48.8736C167.992 49.3646 167.554 50.0327 167.256 50.8778C166.966 51.723 166.821 52.6849 166.821 53.7635C166.821 54.8421 166.966 55.804 167.256 56.6491C167.554 57.4943 167.992 58.1624 168.572 58.6534C169.159 59.1364 169.884 59.3778 170.745 59.3778ZM188.337 52.2784V63H183.193V44.4545H188.095V47.7266H188.312C188.723 46.648 189.411 45.7947 190.377 45.1669C191.343 44.531 192.514 44.2131 193.891 44.2131C195.179 44.2131 196.301 44.4948 197.259 45.0582C198.217 45.6217 198.962 46.4266 199.493 47.473C200.024 48.5114 200.29 49.7509 200.29 51.1918V63H195.146V52.1094C195.154 50.9744 194.865 50.089 194.277 49.4531C193.689 48.8092 192.88 48.4872 191.85 48.4872C191.158 48.4872 190.546 48.6361 190.015 48.9339C189.492 49.2318 189.081 49.6664 188.783 50.2379C188.494 50.8014 188.345 51.4815 188.337 52.2784ZM214.208 44.4545V48.3182H203.04V44.4545H214.208ZM205.575 40.0114H210.719V57.3011C210.719 57.776 210.791 58.1463 210.936 58.4119C211.081 58.6695 211.282 58.8506 211.54 58.9553C211.805 59.0599 212.111 59.1122 212.457 59.1122C212.699 59.1122 212.94 59.0921 213.182 59.0518C213.423 59.0036 213.608 58.9673 213.737 58.9432L214.546 62.7706C214.288 62.8511 213.926 62.9437 213.459 63.0483C212.992 63.161 212.425 63.2294 211.757 63.2536C210.517 63.3018 209.431 63.1368 208.497 62.7585C207.571 62.3802 206.851 61.7926 206.336 60.9957C205.821 60.1989 205.567 59.1927 205.575 57.9773V40.0114ZM217.558 63V44.4545H222.545V47.6903H222.738C223.076 46.5393 223.644 45.67 224.441 45.0824C225.237 44.4867 226.155 44.1889 227.193 44.1889C227.451 44.1889 227.729 44.205 228.026 44.2372C228.324 44.2694 228.586 44.3137 228.811 44.37V48.9339C228.57 48.8615 228.236 48.7971 227.809 48.7408C227.383 48.6844 226.992 48.6562 226.638 48.6562C225.881 48.6562 225.205 48.8213 224.61 49.1513C224.022 49.4732 223.555 49.924 223.209 50.5036C222.871 51.0831 222.702 51.7512 222.702 52.5078V63H217.558ZM236.228 63.3501C235.044 63.3501 233.99 63.1449 233.064 62.7344C232.139 62.3158 231.406 61.7 230.867 60.8871C230.336 60.0661 230.07 59.0438 230.07 57.8203C230.07 56.79 230.259 55.9247 230.637 55.2244C231.016 54.5241 231.531 53.9607 232.183 53.5341C232.835 53.1075 233.575 52.7855 234.404 52.5682C235.242 52.3509 236.119 52.1979 237.037 52.1094C238.115 51.9967 238.984 51.892 239.645 51.7955C240.305 51.6908 240.783 51.5379 241.081 51.3366C241.379 51.1354 241.528 50.8376 241.528 50.4432V50.3707C241.528 49.6061 241.287 49.0144 240.804 48.5959C240.329 48.1773 239.653 47.968 238.775 47.968C237.85 47.968 237.113 48.1733 236.566 48.5838C236.018 48.9863 235.656 49.4934 235.479 50.1051L230.722 49.7188C230.963 48.5919 231.438 47.6179 232.147 46.7969C232.855 45.9678 233.769 45.3319 234.887 44.8892C236.014 44.4384 237.318 44.2131 238.799 44.2131C239.83 44.2131 240.816 44.3338 241.757 44.5753C242.707 44.8168 243.548 45.1911 244.281 45.6982C245.021 46.2053 245.605 46.8572 246.032 47.6541C246.458 48.4429 246.672 49.3887 246.672 50.4915V63H241.794V60.4283H241.649C241.351 61.0078 240.953 61.5189 240.453 61.9616C239.954 62.3963 239.355 62.7384 238.654 62.9879C237.954 63.2294 237.145 63.3501 236.228 63.3501ZM237.701 59.8004C238.457 59.8004 239.125 59.6515 239.705 59.3537C240.284 59.0478 240.739 58.6373 241.069 58.1222C241.399 57.607 241.564 57.0234 241.564 56.3714V54.4034C241.403 54.508 241.182 54.6046 240.9 54.6932C240.627 54.7737 240.317 54.8501 239.971 54.9226C239.624 54.987 239.278 55.0473 238.932 55.1037C238.586 55.152 238.272 55.1963 237.99 55.2365C237.387 55.325 236.859 55.4659 236.409 55.6591C235.958 55.8523 235.608 56.1139 235.358 56.4439C235.109 56.7659 234.984 57.1683 234.984 57.6513C234.984 58.3516 235.238 58.8868 235.745 59.2571C236.26 59.6193 236.912 59.8004 237.701 59.8004ZM266.092 49.7429L261.384 50.0327C261.303 49.6302 261.13 49.268 260.864 48.946C260.599 48.616 260.249 48.3544 259.814 48.1612C259.387 47.96 258.876 47.8594 258.281 47.8594C257.484 47.8594 256.812 48.0284 256.264 48.3665C255.717 48.6965 255.443 49.1392 255.443 49.6946C255.443 50.1373 255.62 50.5116 255.974 50.8175C256.329 51.1233 256.936 51.3688 257.798 51.554L261.154 52.2301C262.957 52.6004 264.301 53.196 265.187 54.017C266.072 54.8381 266.515 55.9167 266.515 57.2528C266.515 58.4683 266.157 59.5348 265.44 60.4524C264.732 61.37 263.758 62.0864 262.518 62.6016C261.287 63.1087 259.866 63.3622 258.256 63.3622C255.801 63.3622 253.845 62.8511 252.388 61.8288C250.94 60.7985 250.09 59.398 249.841 57.6271L254.9 57.3615C255.053 58.1101 255.423 58.6816 256.011 59.076C256.598 59.4624 257.351 59.6555 258.268 59.6555C259.17 59.6555 259.894 59.4825 260.442 59.1364C260.997 58.7822 261.279 58.3274 261.287 57.772C261.279 57.3052 261.082 56.9228 260.695 56.625C260.309 56.3191 259.713 56.0857 258.908 55.9247L255.697 55.2848C253.886 54.9226 252.537 54.2947 251.652 53.4013C250.775 52.5078 250.336 51.3688 250.336 49.9844C250.336 48.7931 250.658 47.7668 251.302 46.9055C251.954 46.0443 252.867 45.3802 254.043 44.9134C255.226 44.4465 256.61 44.2131 258.196 44.2131C260.538 44.2131 262.382 44.7081 263.726 45.6982C265.078 46.6882 265.867 48.0365 266.092 49.7429ZM279.618 44.4545V48.3182H268.45V44.4545H279.618ZM270.985 40.0114H276.129V57.3011C276.129 57.776 276.201 58.1463 276.346 58.4119C276.491 58.6695 276.692 58.8506 276.95 58.9553C277.215 59.0599 277.521 59.1122 277.867 59.1122C278.109 59.1122 278.35 59.0921 278.592 59.0518C278.833 59.0036 279.018 58.9673 279.147 58.9432L279.956 62.7706C279.699 62.8511 279.336 62.9437 278.869 63.0483C278.403 63.161 277.835 63.2294 277.167 63.2536C275.927 63.3018 274.841 63.1368 273.907 62.7585C272.981 62.3802 272.261 61.7926 271.746 60.9957C271.231 60.1989 270.977 59.1927 270.985 57.9773V40.0114Z" fill="white"/>
<path d="M47.2106 124.656H43.4776C43.4094 124.173 43.2702 123.744 43.06 123.369C42.8498 122.989 42.5799 122.665 42.2504 122.398C41.9208 122.131 41.5401 121.926 41.1083 121.784C40.6822 121.642 40.2191 121.571 39.7191 121.571C38.8157 121.571 38.0288 121.795 37.3583 122.244C36.6879 122.687 36.168 123.335 35.7987 124.188C35.4293 125.034 35.2447 126.062 35.2447 127.273C35.2447 128.517 35.4293 129.562 35.7987 130.409C36.1737 131.256 36.6964 131.895 37.3668 132.327C38.0373 132.759 38.8129 132.974 39.6935 132.974C40.1879 132.974 40.6452 132.909 41.0657 132.778C41.4918 132.648 41.8697 132.457 42.1992 132.207C42.5288 131.952 42.8015 131.642 43.0174 131.278C43.239 130.915 43.3924 130.5 43.4776 130.034L47.2106 130.051C47.114 130.852 46.8725 131.625 46.4862 132.369C46.1055 133.108 45.5913 133.77 44.9435 134.355C44.3015 134.935 43.5344 135.395 42.6424 135.736C41.756 136.071 40.7532 136.239 39.6339 136.239C38.0771 136.239 36.685 135.886 35.4577 135.182C34.2362 134.477 33.2702 133.457 32.56 132.122C31.8555 130.787 31.5032 129.17 31.5032 127.273C31.5032 125.369 31.8612 123.75 32.5771 122.415C33.293 121.08 34.2646 120.062 35.4918 119.364C36.7191 118.659 38.0998 118.307 39.6339 118.307C40.6452 118.307 41.5827 118.449 42.4464 118.733C43.3157 119.017 44.0856 119.432 44.756 119.977C45.4265 120.517 45.9719 121.179 46.3924 121.963C46.8185 122.747 47.0913 123.645 47.2106 124.656ZM49.7887 136V122.909H53.3086V125.193H53.445C53.6836 124.381 54.0842 123.767 54.6467 123.352C55.2092 122.932 55.8569 122.722 56.5898 122.722C56.7717 122.722 56.9677 122.733 57.1779 122.756C57.3881 122.778 57.5728 122.81 57.7319 122.849V126.071C57.5614 126.02 57.3256 125.974 57.0245 125.935C56.7234 125.895 56.4478 125.875 56.1978 125.875C55.6637 125.875 55.1864 125.991 54.766 126.224C54.3512 126.452 54.0217 126.77 53.7773 127.179C53.5387 127.588 53.4194 128.06 53.4194 128.594V136H49.7887ZM64.9656 136.256C63.619 136.256 62.4599 135.983 61.4883 135.438C60.5224 134.886 59.7781 134.108 59.2553 133.102C58.7326 132.091 58.4712 130.895 58.4712 129.514C58.4712 128.168 58.7326 126.986 59.2553 125.969C59.7781 124.952 60.5138 124.159 61.4627 123.591C62.4173 123.023 63.5366 122.739 64.8207 122.739C65.6843 122.739 66.4883 122.878 67.2326 123.156C67.9826 123.429 68.636 123.841 69.1928 124.392C69.7553 124.943 70.1928 125.636 70.5053 126.472C70.8178 127.301 70.9741 128.273 70.9741 129.386V130.384H59.9201V128.134H67.5565C67.5565 127.611 67.4428 127.148 67.2156 126.744C66.9883 126.341 66.6729 126.026 66.2695 125.798C65.8718 125.565 65.4087 125.449 64.8803 125.449C64.3292 125.449 63.8406 125.577 63.4144 125.832C62.994 126.082 62.6644 126.42 62.4258 126.847C62.1871 127.267 62.065 127.736 62.0593 128.253V130.392C62.0593 131.04 62.1786 131.599 62.4173 132.071C62.6616 132.543 63.0053 132.906 63.4485 133.162C63.8917 133.418 64.4173 133.545 65.0252 133.545C65.4286 133.545 65.7979 133.489 66.1332 133.375C66.4684 133.261 66.7553 133.091 66.994 132.864C67.2326 132.636 67.4144 132.358 67.5394 132.028L70.8974 132.25C70.7269 133.057 70.3775 133.761 69.8491 134.364C69.3263 134.96 68.6502 135.426 67.8207 135.761C66.9968 136.091 66.0451 136.256 64.9656 136.256ZM77.0763 136.247C76.2411 136.247 75.4968 136.102 74.8434 135.812C74.19 135.517 73.6729 135.082 73.2923 134.509C72.9173 133.929 72.7298 133.207 72.7298 132.344C72.7298 131.616 72.8633 131.006 73.1303 130.511C73.3974 130.017 73.761 129.619 74.2212 129.318C74.6815 129.017 75.2042 128.79 75.7894 128.636C76.3803 128.483 76.9996 128.375 77.6474 128.312C78.4087 128.233 79.0224 128.159 79.4883 128.091C79.9542 128.017 80.2923 127.909 80.5025 127.767C80.7127 127.625 80.8178 127.415 80.8178 127.136V127.085C80.8178 126.545 80.6474 126.128 80.3065 125.832C79.9712 125.537 79.494 125.389 78.8746 125.389C78.2212 125.389 77.7013 125.534 77.315 125.824C76.9286 126.108 76.6729 126.466 76.5479 126.898L73.19 126.625C73.3604 125.83 73.6957 125.142 74.1957 124.562C74.6957 123.977 75.3406 123.528 76.1303 123.216C76.9258 122.898 77.8462 122.739 78.8917 122.739C79.619 122.739 80.315 122.824 80.9798 122.994C81.6502 123.165 82.244 123.429 82.761 123.787C83.2837 124.145 83.6957 124.605 83.9968 125.168C84.2979 125.724 84.4485 126.392 84.4485 127.17V136H81.0053V134.185H80.9031C80.6928 134.594 80.4116 134.955 80.0593 135.267C79.707 135.574 79.2837 135.815 78.7894 135.991C78.2951 136.162 77.7241 136.247 77.0763 136.247ZM78.1161 133.741C78.6502 133.741 79.1218 133.636 79.5309 133.426C79.94 133.21 80.261 132.92 80.494 132.557C80.7269 132.193 80.8434 131.781 80.8434 131.321V129.932C80.7298 130.006 80.5735 130.074 80.3746 130.136C80.1815 130.193 79.9627 130.247 79.7184 130.298C79.4741 130.344 79.2298 130.386 78.9854 130.426C78.7411 130.46 78.5195 130.491 78.3207 130.52C77.8945 130.582 77.5224 130.682 77.2042 130.818C76.886 130.955 76.6388 131.139 76.4627 131.372C76.2866 131.599 76.1985 131.884 76.1985 132.224C76.1985 132.719 76.3775 133.097 76.7354 133.358C77.0991 133.614 77.5593 133.741 78.1161 133.741ZM94.2283 122.909V125.636H86.3448V122.909H94.2283ZM88.1346 119.773H91.7653V131.977C91.7653 132.312 91.8164 132.574 91.9187 132.761C92.021 132.943 92.163 133.071 92.3448 133.145C92.5323 133.219 92.7482 133.256 92.9925 133.256C93.163 133.256 93.3335 133.241 93.5039 133.213C93.6744 133.179 93.805 133.153 93.896 133.136L94.467 135.838C94.2852 135.895 94.0295 135.96 93.6999 136.034C93.3704 136.114 92.9698 136.162 92.4982 136.179C91.6232 136.213 90.8562 136.097 90.1971 135.83C89.5437 135.562 89.0352 135.148 88.6715 134.585C88.3079 134.023 88.1289 133.312 88.1346 132.455V119.773ZM102.419 136.256C101.072 136.256 99.913 135.983 98.9414 135.438C97.9755 134.886 97.2312 134.108 96.7085 133.102C96.1857 132.091 95.9244 130.895 95.9244 129.514C95.9244 128.168 96.1857 126.986 96.7085 125.969C97.2312 124.952 97.967 124.159 98.9158 123.591C99.8704 123.023 100.99 122.739 102.274 122.739C103.137 122.739 103.941 122.878 104.686 123.156C105.436 123.429 106.089 123.841 106.646 124.392C107.208 124.943 107.646 125.636 107.958 126.472C108.271 127.301 108.427 128.273 108.427 129.386V130.384H97.3732V128.134H105.01C105.01 127.611 104.896 127.148 104.669 126.744C104.441 126.341 104.126 126.026 103.723 125.798C103.325 125.565 102.862 125.449 102.333 125.449C101.782 125.449 101.294 125.577 100.868 125.832C100.447 126.082 100.118 126.42 99.8789 126.847C99.6403 127.267 99.5181 127.736 99.5124 128.253V130.392C99.5124 131.04 99.6317 131.599 99.8704 132.071C100.115 132.543 100.458 132.906 100.902 133.162C101.345 133.418 101.87 133.545 102.478 133.545C102.882 133.545 103.251 133.489 103.586 133.375C103.922 133.261 104.208 133.091 104.447 132.864C104.686 132.636 104.868 132.358 104.993 132.028L108.35 132.25C108.18 133.057 107.831 133.761 107.302 134.364C106.779 134.96 106.103 135.426 105.274 135.761C104.45 136.091 103.498 136.256 102.419 136.256ZM131.82 124.656H128.087C128.019 124.173 127.88 123.744 127.669 123.369C127.459 122.989 127.189 122.665 126.86 122.398C126.53 122.131 126.15 121.926 125.718 121.784C125.292 121.642 124.828 121.571 124.328 121.571C123.425 121.571 122.638 121.795 121.968 122.244C121.297 122.687 120.777 123.335 120.408 124.188C120.039 125.034 119.854 126.062 119.854 127.273C119.854 128.517 120.039 129.562 120.408 130.409C120.783 131.256 121.306 131.895 121.976 132.327C122.647 132.759 123.422 132.974 124.303 132.974C124.797 132.974 125.255 132.909 125.675 132.778C126.101 132.648 126.479 132.457 126.809 132.207C127.138 131.952 127.411 131.642 127.627 131.278C127.848 130.915 128.002 130.5 128.087 130.034L131.82 130.051C131.723 130.852 131.482 131.625 131.096 132.369C130.715 133.108 130.201 133.77 129.553 134.355C128.911 134.935 128.144 135.395 127.252 135.736C126.365 136.071 125.363 136.239 124.243 136.239C122.686 136.239 121.294 135.886 120.067 135.182C118.846 134.477 117.88 133.457 117.169 132.122C116.465 130.787 116.113 129.17 116.113 127.273C116.113 125.369 116.471 123.75 117.186 122.415C117.902 121.08 118.874 120.062 120.101 119.364C121.328 118.659 122.709 118.307 124.243 118.307C125.255 118.307 126.192 118.449 127.056 118.733C127.925 119.017 128.695 119.432 129.365 119.977C130.036 120.517 130.581 121.179 131.002 121.963C131.428 122.747 131.701 123.645 131.82 124.656ZM140.313 136.256C138.989 136.256 137.844 135.974 136.878 135.412C135.918 134.844 135.176 134.054 134.654 133.043C134.131 132.026 133.87 130.847 133.87 129.506C133.87 128.153 134.131 126.972 134.654 125.96C135.176 124.943 135.918 124.153 136.878 123.591C137.844 123.023 138.989 122.739 140.313 122.739C141.637 122.739 142.779 123.023 143.739 123.591C144.705 124.153 145.449 124.943 145.972 125.96C146.495 126.972 146.756 128.153 146.756 129.506C146.756 130.847 146.495 132.026 145.972 133.043C145.449 134.054 144.705 134.844 143.739 135.412C142.779 135.974 141.637 136.256 140.313 136.256ZM140.33 133.443C140.932 133.443 141.435 133.273 141.838 132.932C142.242 132.585 142.546 132.114 142.75 131.517C142.961 130.92 143.066 130.241 143.066 129.48C143.066 128.719 142.961 128.04 142.75 127.443C142.546 126.847 142.242 126.375 141.838 126.028C141.435 125.682 140.932 125.509 140.33 125.509C139.722 125.509 139.211 125.682 138.796 126.028C138.387 126.375 138.077 126.847 137.867 127.443C137.662 128.04 137.56 128.719 137.56 129.48C137.56 130.241 137.662 130.92 137.867 131.517C138.077 132.114 138.387 132.585 138.796 132.932C139.211 133.273 139.722 133.443 140.33 133.443ZM152.748 128.432V136H149.117V122.909H152.577V125.219H152.73C153.02 124.457 153.506 123.855 154.188 123.412C154.87 122.963 155.696 122.739 156.668 122.739C157.577 122.739 158.37 122.938 159.046 123.335C159.722 123.733 160.248 124.301 160.623 125.04C160.998 125.773 161.185 126.648 161.185 127.665V136H157.554V128.312C157.56 127.511 157.355 126.886 156.941 126.438C156.526 125.983 155.955 125.756 155.228 125.756C154.739 125.756 154.307 125.861 153.932 126.071C153.563 126.281 153.273 126.588 153.063 126.991C152.858 127.389 152.753 127.869 152.748 128.432ZM171.01 122.909V125.636H163.126V122.909H171.01ZM164.916 119.773H168.547V131.977C168.547 132.312 168.598 132.574 168.7 132.761C168.802 132.943 168.944 133.071 169.126 133.145C169.314 133.219 169.529 133.256 169.774 133.256C169.944 133.256 170.115 133.241 170.285 133.213C170.456 133.179 170.586 133.153 170.677 133.136L171.248 135.838C171.066 135.895 170.811 135.96 170.481 136.034C170.152 136.114 169.751 136.162 169.279 136.179C168.404 136.213 167.637 136.097 166.978 135.83C166.325 135.562 165.816 135.148 165.453 134.585C165.089 134.023 164.91 133.312 164.916 132.455V119.773ZM173.375 136V122.909H176.895V125.193H177.031C177.27 124.381 177.67 123.767 178.233 123.352C178.795 122.932 179.443 122.722 180.176 122.722C180.358 122.722 180.554 122.733 180.764 122.756C180.974 122.778 181.159 122.81 181.318 122.849V126.071C181.147 126.02 180.912 125.974 180.61 125.935C180.309 125.895 180.034 125.875 179.784 125.875C179.25 125.875 178.772 125.991 178.352 126.224C177.937 126.452 177.608 126.77 177.363 127.179C177.125 127.588 177.005 128.06 177.005 128.594V136H173.375ZM186.553 136.247C185.718 136.247 184.973 136.102 184.32 135.812C183.667 135.517 183.15 135.082 182.769 134.509C182.394 133.929 182.206 133.207 182.206 132.344C182.206 131.616 182.34 131.006 182.607 130.511C182.874 130.017 183.238 129.619 183.698 129.318C184.158 129.017 184.681 128.79 185.266 128.636C185.857 128.483 186.476 128.375 187.124 128.312C187.885 128.233 188.499 128.159 188.965 128.091C189.431 128.017 189.769 127.909 189.979 127.767C190.189 127.625 190.294 127.415 190.294 127.136V127.085C190.294 126.545 190.124 126.128 189.783 125.832C189.448 125.537 188.971 125.389 188.351 125.389C187.698 125.389 187.178 125.534 186.792 125.824C186.405 126.108 186.15 126.466 186.025 126.898L182.667 126.625C182.837 125.83 183.172 125.142 183.672 124.562C184.172 123.977 184.817 123.528 185.607 123.216C186.402 122.898 187.323 122.739 188.368 122.739C189.096 122.739 189.792 122.824 190.456 122.994C191.127 123.165 191.721 123.429 192.238 123.787C192.76 124.145 193.172 124.605 193.473 125.168C193.775 125.724 193.925 126.392 193.925 127.17V136H190.482V134.185H190.38C190.169 134.594 189.888 134.955 189.536 135.267C189.184 135.574 188.76 135.815 188.266 135.991C187.772 136.162 187.201 136.247 186.553 136.247ZM187.593 133.741C188.127 133.741 188.598 133.636 189.007 133.426C189.417 133.21 189.738 132.92 189.971 132.557C190.203 132.193 190.32 131.781 190.32 131.321V129.932C190.206 130.006 190.05 130.074 189.851 130.136C189.658 130.193 189.439 130.247 189.195 130.298C188.951 130.344 188.706 130.386 188.462 130.426C188.218 130.46 187.996 130.491 187.797 130.52C187.371 130.582 186.999 130.682 186.681 130.818C186.363 130.955 186.115 131.139 185.939 131.372C185.763 131.599 185.675 131.884 185.675 132.224C185.675 132.719 185.854 133.097 186.212 133.358C186.576 133.614 187.036 133.741 187.593 133.741ZM202.657 136.256C201.316 136.256 200.162 135.972 199.196 135.403C198.236 134.83 197.498 134.034 196.98 133.017C196.469 132 196.213 130.83 196.213 129.506C196.213 128.165 196.472 126.989 196.989 125.977C197.512 124.96 198.253 124.168 199.213 123.599C200.174 123.026 201.316 122.739 202.64 122.739C203.782 122.739 204.782 122.946 205.64 123.361C206.498 123.776 207.176 124.358 207.676 125.108C208.176 125.858 208.452 126.739 208.503 127.75H205.077C204.98 127.097 204.725 126.571 204.31 126.173C203.901 125.77 203.364 125.568 202.699 125.568C202.137 125.568 201.645 125.722 201.225 126.028C200.81 126.33 200.486 126.77 200.253 127.349C200.02 127.929 199.904 128.631 199.904 129.455C199.904 130.29 200.017 131 200.245 131.585C200.478 132.17 200.804 132.616 201.225 132.923C201.645 133.23 202.137 133.384 202.699 133.384C203.114 133.384 203.486 133.298 203.816 133.128C204.151 132.957 204.426 132.71 204.642 132.386C204.864 132.057 205.009 131.662 205.077 131.202H208.503C208.446 132.202 208.174 133.082 207.685 133.844C207.202 134.599 206.534 135.19 205.682 135.616C204.83 136.043 203.821 136.256 202.657 136.256ZM217.791 122.909V125.636H209.907V122.909H217.791ZM211.697 119.773H215.328V131.977C215.328 132.312 215.379 132.574 215.481 132.761C215.583 132.943 215.725 133.071 215.907 133.145C216.095 133.219 216.311 133.256 216.555 133.256C216.725 133.256 216.896 133.241 217.066 133.213C217.237 133.179 217.368 133.153 217.458 133.136L218.029 135.838C217.848 135.895 217.592 135.96 217.262 136.034C216.933 136.114 216.532 136.162 216.061 136.179C215.186 136.213 214.419 136.097 213.76 135.83C213.106 135.562 212.598 135.148 212.234 134.585C211.87 134.023 211.691 133.312 211.697 132.455V119.773Z" fill="#FFD700"/>
<path d="M617.513 136V118.545H624.4C625.723 118.545 626.851 118.798 627.783 119.304C628.715 119.804 629.425 120.5 629.914 121.392C630.408 122.278 630.655 123.301 630.655 124.46C630.655 125.619 630.405 126.642 629.905 127.528C629.405 128.415 628.681 129.105 627.732 129.599C626.789 130.094 625.647 130.341 624.306 130.341H619.917V127.384H623.709C624.419 127.384 625.005 127.261 625.465 127.017C625.931 126.767 626.277 126.423 626.505 125.986C626.738 125.543 626.854 125.034 626.854 124.46C626.854 123.881 626.738 123.375 626.505 122.943C626.277 122.506 625.931 122.168 625.465 121.929C624.999 121.685 624.408 121.562 623.692 121.562H621.203V136H617.513ZM632.984 136V122.909H636.504V125.193H636.64C636.879 124.381 637.279 123.767 637.842 123.352C638.404 122.932 639.052 122.722 639.785 122.722C639.967 122.722 640.163 122.733 640.373 122.756C640.583 122.778 640.768 122.81 640.927 122.849V126.071C640.757 126.02 640.521 125.974 640.22 125.935C639.919 125.895 639.643 125.875 639.393 125.875C638.859 125.875 638.382 125.991 637.961 126.224C637.547 126.452 637.217 126.77 636.973 127.179C636.734 127.588 636.615 128.06 636.615 128.594V136H632.984ZM648.161 136.256C646.814 136.256 645.655 135.983 644.684 135.438C643.718 134.886 642.973 134.108 642.451 133.102C641.928 132.091 641.667 130.895 641.667 129.514C641.667 128.168 641.928 126.986 642.451 125.969C642.973 124.952 643.709 124.159 644.658 123.591C645.613 123.023 646.732 122.739 648.016 122.739C648.88 122.739 649.684 122.878 650.428 123.156C651.178 123.429 651.831 123.841 652.388 124.392C652.951 124.943 653.388 125.636 653.701 126.472C654.013 127.301 654.169 128.273 654.169 129.386V130.384H643.115V128.134H650.752C650.752 127.611 650.638 127.148 650.411 126.744C650.184 126.341 649.868 126.026 649.465 125.798C649.067 125.565 648.604 125.449 648.076 125.449C647.525 125.449 647.036 125.577 646.61 125.832C646.189 126.082 645.86 126.42 645.621 126.847C645.382 127.267 645.26 127.736 645.255 128.253V130.392C645.255 131.04 645.374 131.599 645.613 132.071C645.857 132.543 646.201 132.906 646.644 133.162C647.087 133.418 647.613 133.545 648.221 133.545C648.624 133.545 648.993 133.489 649.328 133.375C649.664 133.261 649.951 133.091 650.189 132.864C650.428 132.636 650.61 132.358 650.735 132.028L654.093 132.25C653.922 133.057 653.573 133.761 653.044 134.364C652.522 134.96 651.846 135.426 651.016 135.761C650.192 136.091 649.24 136.256 648.161 136.256ZM668.392 122.909L663.815 136H659.724L655.147 122.909H658.983L661.701 132.276H661.838L664.548 122.909H668.392ZM670.25 136V122.909H673.88V136H670.25ZM672.074 121.222C671.534 121.222 671.071 121.043 670.684 120.685C670.304 120.321 670.113 119.886 670.113 119.381C670.113 118.881 670.304 118.452 670.684 118.094C671.071 117.73 671.534 117.548 672.074 117.548C672.613 117.548 673.074 117.73 673.454 118.094C673.841 118.452 674.034 118.881 674.034 119.381C674.034 119.886 673.841 120.321 673.454 120.685C673.074 121.043 672.613 121.222 672.074 121.222ZM682.755 136.256C681.408 136.256 680.249 135.983 679.277 135.438C678.311 134.886 677.567 134.108 677.044 133.102C676.522 132.091 676.26 130.895 676.26 129.514C676.26 128.168 676.522 126.986 677.044 125.969C677.567 124.952 678.303 124.159 679.252 123.591C680.206 123.023 681.326 122.739 682.61 122.739C683.473 122.739 684.277 122.878 685.022 123.156C685.772 123.429 686.425 123.841 686.982 124.392C687.544 124.943 687.982 125.636 688.294 126.472C688.607 127.301 688.763 128.273 688.763 129.386V130.384H677.709V128.134H685.346C685.346 127.611 685.232 127.148 685.005 126.744C684.777 126.341 684.462 126.026 684.059 125.798C683.661 125.565 683.198 125.449 682.669 125.449C682.118 125.449 681.63 125.577 681.203 125.832C680.783 126.082 680.453 126.42 680.215 126.847C679.976 127.267 679.854 127.736 679.848 128.253V130.392C679.848 131.04 679.968 131.599 680.206 132.071C680.451 132.543 680.794 132.906 681.238 133.162C681.681 133.418 682.206 133.545 682.814 133.545C683.218 133.545 683.587 133.489 683.922 133.375C684.257 133.261 684.544 133.091 684.783 132.864C685.022 132.636 685.203 132.358 685.328 132.028L688.686 132.25C688.516 133.057 688.167 133.761 687.638 134.364C687.115 134.96 686.439 135.426 685.61 135.761C684.786 136.091 683.834 136.256 682.755 136.256ZM693.621 136L690.059 122.909H693.732L695.76 131.705H695.88L697.993 122.909H701.598L703.746 131.653H703.857L705.851 122.909H709.516L705.962 136H702.118L699.868 127.767H699.706L697.456 136H693.621Z" fill="white"/>
<path d="M1108.6 136V118.545H1115.49C1116.81 118.545 1117.94 118.798 1118.87 119.304C1119.8 119.804 1120.51 120.5 1121 121.392C1121.49 122.278 1121.74 123.301 1121.74 124.46C1121.74 125.619 1121.49 126.642 1120.99 127.528C1120.49 128.415 1119.77 129.105 1118.82 129.599C1117.87 130.094 1116.73 130.341 1115.39 130.341H1111V127.384H1114.8C1115.51 127.384 1116.09 127.261 1116.55 127.017C1117.02 126.767 1117.36 126.423 1117.59 125.986C1117.82 125.543 1117.94 125.034 1117.94 124.46C1117.94 123.881 1117.82 123.375 1117.59 122.943C1117.36 122.506 1117.02 122.168 1116.55 121.929C1116.08 121.685 1115.49 121.562 1114.78 121.562H1112.29V136H1108.6ZM1127.45 136.247C1126.62 136.247 1125.87 136.102 1125.22 135.812C1124.56 135.517 1124.05 135.082 1123.67 134.509C1123.29 133.929 1123.1 133.207 1123.1 132.344C1123.1 131.616 1123.24 131.006 1123.51 130.511C1123.77 130.017 1124.14 129.619 1124.6 129.318C1125.06 129.017 1125.58 128.79 1126.16 128.636C1126.76 128.483 1127.37 128.375 1128.02 128.312C1128.78 128.233 1129.4 128.159 1129.86 128.091C1130.33 128.017 1130.67 127.909 1130.88 127.767C1131.09 127.625 1131.19 127.415 1131.19 127.136V127.085C1131.19 126.545 1131.02 126.128 1130.68 125.832C1130.35 125.537 1129.87 125.389 1129.25 125.389C1128.6 125.389 1128.08 125.534 1127.69 125.824C1127.3 126.108 1127.05 126.466 1126.92 126.898L1123.56 126.625C1123.74 125.83 1124.07 125.142 1124.57 124.562C1125.07 123.977 1125.72 123.528 1126.51 123.216C1127.3 122.898 1128.22 122.739 1129.27 122.739C1129.99 122.739 1130.69 122.824 1131.35 122.994C1132.03 123.165 1132.62 123.429 1133.14 123.787C1133.66 124.145 1134.07 124.605 1134.37 125.168C1134.67 125.724 1134.82 126.392 1134.82 127.17V136H1131.38V134.185H1131.28C1131.07 134.594 1130.79 134.955 1130.43 135.267C1130.08 135.574 1129.66 135.815 1129.16 135.991C1128.67 136.162 1128.1 136.247 1127.45 136.247ZM1128.49 133.741C1129.03 133.741 1129.5 133.636 1129.91 133.426C1130.31 133.21 1130.64 132.92 1130.87 132.557C1131.1 132.193 1131.22 131.781 1131.22 131.321V129.932C1131.1 130.006 1130.95 130.074 1130.75 130.136C1130.56 130.193 1130.34 130.247 1130.09 130.298C1129.85 130.344 1129.6 130.386 1129.36 130.426C1129.12 130.46 1128.89 130.491 1128.7 130.52C1128.27 130.582 1127.9 130.682 1127.58 130.818C1127.26 130.955 1127.01 131.139 1126.84 131.372C1126.66 131.599 1126.57 131.884 1126.57 132.224C1126.57 132.719 1126.75 133.097 1127.11 133.358C1127.47 133.614 1127.93 133.741 1128.49 133.741ZM1139.41 140.909C1138.95 140.909 1138.52 140.872 1138.12 140.798C1137.72 140.73 1137.39 140.642 1137.13 140.534L1137.95 137.824C1138.37 137.955 1138.76 138.026 1139.1 138.037C1139.44 138.048 1139.74 137.969 1139.99 137.798C1140.25 137.628 1140.46 137.338 1140.61 136.929L1140.83 136.375L1136.13 122.909H1139.95L1142.66 132.523H1142.8L1145.53 122.909H1149.38L1144.29 137.415C1144.04 138.119 1143.71 138.733 1143.29 139.256C1142.88 139.784 1142.35 140.19 1141.71 140.474C1141.08 140.764 1140.31 140.909 1139.41 140.909ZM1162.14 136.256C1160.94 136.256 1159.9 136.04 1159.02 135.608C1158.15 135.176 1157.47 134.591 1157 133.852C1156.54 133.108 1156.3 132.278 1156.3 131.364C1156.3 130.682 1156.44 130.077 1156.71 129.548C1156.98 129.02 1157.37 128.534 1157.85 128.091C1158.34 127.642 1158.91 127.196 1159.56 126.753L1162.94 124.528C1163.38 124.25 1163.7 123.957 1163.91 123.651C1164.11 123.338 1164.21 123 1164.21 122.636C1164.21 122.29 1164.07 121.969 1163.79 121.673C1163.52 121.378 1163.12 121.233 1162.61 121.239C1162.27 121.239 1161.97 121.315 1161.72 121.469C1161.47 121.616 1161.28 121.812 1161.14 122.057C1161 122.295 1160.93 122.562 1160.93 122.858C1160.93 123.222 1161.03 123.591 1161.24 123.966C1161.44 124.341 1161.71 124.739 1162.06 125.159C1162.4 125.574 1162.77 126.023 1163.17 126.506L1171.45 136H1167.66L1160.76 128.312C1160.31 127.795 1159.85 127.256 1159.4 126.693C1158.95 126.125 1158.57 125.523 1158.27 124.886C1157.97 124.244 1157.82 123.548 1157.82 122.798C1157.82 121.952 1158.02 121.19 1158.41 120.514C1158.81 119.838 1159.36 119.304 1160.08 118.912C1160.79 118.514 1161.63 118.315 1162.58 118.315C1163.52 118.315 1164.32 118.506 1165 118.886C1165.68 119.261 1166.2 119.761 1166.56 120.386C1166.93 121.006 1167.12 121.687 1167.12 122.432C1167.12 123.256 1166.91 124.003 1166.5 124.673C1166.1 125.338 1165.53 125.935 1164.8 126.463L1161.24 129.028C1160.75 129.381 1160.4 129.741 1160.16 130.111C1159.94 130.474 1159.82 130.824 1159.82 131.159C1159.82 131.574 1159.93 131.946 1160.13 132.276C1160.33 132.605 1160.62 132.866 1161 133.06C1161.37 133.247 1161.81 133.341 1162.32 133.341C1162.93 133.341 1163.54 133.202 1164.14 132.923C1164.74 132.639 1165.28 132.239 1165.77 131.722C1166.27 131.199 1166.66 130.58 1166.96 129.864C1167.25 129.148 1167.4 128.355 1167.4 127.486H1170.41C1170.41 128.554 1170.29 129.517 1170.06 130.375C1169.83 131.227 1169.5 131.972 1169.09 132.608C1168.67 133.239 1168.2 133.756 1167.66 134.159C1167.49 134.267 1167.33 134.369 1167.17 134.466C1167.01 134.562 1166.85 134.665 1166.68 134.773C1166.03 135.295 1165.3 135.673 1164.5 135.906C1163.71 136.139 1162.92 136.256 1162.14 136.256ZM1178.58 136V118.545H1185.47C1186.79 118.545 1187.92 118.798 1188.85 119.304C1189.79 119.804 1190.5 120.5 1190.98 121.392C1191.48 122.278 1191.73 123.301 1191.73 124.46C1191.73 125.619 1191.48 126.642 1190.98 127.528C1190.48 128.415 1189.75 129.105 1188.8 129.599C1187.86 130.094 1186.72 130.341 1185.38 130.341H1180.99V127.384H1184.78C1185.49 127.384 1186.07 127.261 1186.54 127.017C1187 126.767 1187.35 126.423 1187.57 125.986C1187.81 125.543 1187.92 125.034 1187.92 124.46C1187.92 123.881 1187.81 123.375 1187.57 122.943C1187.35 122.506 1187 122.168 1186.54 121.929C1186.07 121.685 1185.48 121.562 1184.76 121.562H1182.27V136H1178.58ZM1199.76 136.256C1198.43 136.256 1197.29 135.974 1196.32 135.412C1195.36 134.844 1194.62 134.054 1194.1 133.043C1193.58 132.026 1193.31 130.847 1193.31 129.506C1193.31 128.153 1193.58 126.972 1194.1 125.96C1194.62 124.943 1195.36 124.153 1196.32 123.591C1197.29 123.023 1198.43 122.739 1199.76 122.739C1201.08 122.739 1202.22 123.023 1203.18 123.591C1204.15 124.153 1204.89 124.943 1205.42 125.96C1205.94 126.972 1206.2 128.153 1206.2 129.506C1206.2 130.847 1205.94 132.026 1205.42 133.043C1204.89 134.054 1204.15 134.844 1203.18 135.412C1202.22 135.974 1201.08 136.256 1199.76 136.256ZM1199.78 133.443C1200.38 133.443 1200.88 133.273 1201.28 132.932C1201.69 132.585 1201.99 132.114 1202.2 131.517C1202.41 130.92 1202.51 130.241 1202.51 129.48C1202.51 128.719 1202.41 128.04 1202.2 127.443C1201.99 126.847 1201.69 126.375 1201.28 126.028C1200.88 125.682 1200.38 125.509 1199.78 125.509C1199.17 125.509 1198.66 125.682 1198.24 126.028C1197.83 126.375 1197.52 126.847 1197.31 127.443C1197.11 128.04 1197.01 128.719 1197.01 129.48C1197.01 130.241 1197.11 130.92 1197.31 131.517C1197.52 132.114 1197.83 132.585 1198.24 132.932C1198.66 133.273 1199.17 133.443 1199.78 133.443ZM1219.45 126.642L1216.13 126.847C1216.07 126.562 1215.95 126.307 1215.76 126.08C1215.58 125.847 1215.33 125.662 1215.02 125.526C1214.72 125.384 1214.36 125.312 1213.94 125.312C1213.38 125.312 1212.9 125.432 1212.52 125.67C1212.13 125.903 1211.94 126.216 1211.94 126.608C1211.94 126.92 1212.06 127.185 1212.31 127.401C1212.56 127.616 1212.99 127.79 1213.6 127.92L1215.97 128.398C1217.24 128.659 1218.19 129.08 1218.81 129.659C1219.44 130.239 1219.75 131 1219.75 131.943C1219.75 132.801 1219.5 133.554 1218.99 134.202C1218.49 134.849 1217.81 135.355 1216.93 135.719C1216.06 136.077 1215.06 136.256 1213.92 136.256C1212.19 136.256 1210.81 135.895 1209.78 135.173C1208.76 134.446 1208.16 133.457 1207.98 132.207L1211.55 132.02C1211.66 132.548 1211.92 132.952 1212.34 133.23C1212.75 133.503 1213.28 133.639 1213.93 133.639C1214.57 133.639 1215.08 133.517 1215.47 133.273C1215.86 133.023 1216.06 132.702 1216.06 132.31C1216.06 131.98 1215.92 131.71 1215.64 131.5C1215.37 131.284 1214.95 131.119 1214.38 131.006L1212.12 130.554C1210.84 130.298 1209.89 129.855 1209.26 129.224C1208.64 128.594 1208.33 127.79 1208.33 126.812C1208.33 125.972 1208.56 125.247 1209.01 124.639C1209.47 124.031 1210.12 123.562 1210.95 123.233C1211.78 122.903 1212.76 122.739 1213.88 122.739C1215.53 122.739 1216.83 123.088 1217.78 123.787C1218.74 124.486 1219.3 125.437 1219.45 126.642ZM1229 122.909V125.636H1221.12V122.909H1229ZM1222.91 119.773H1226.54V131.977C1226.54 132.312 1226.59 132.574 1226.69 132.761C1226.79 132.943 1226.94 133.071 1227.12 133.145C1227.31 133.219 1227.52 133.256 1227.77 133.256C1227.94 133.256 1228.11 133.241 1228.28 133.213C1228.45 133.179 1228.58 133.153 1228.67 133.136L1229.24 135.838C1229.06 135.895 1228.8 135.96 1228.47 136.034C1228.14 136.114 1227.74 136.162 1227.27 136.179C1226.4 136.213 1225.63 136.097 1224.97 135.83C1224.32 135.562 1223.81 135.148 1223.44 134.585C1223.08 134.023 1222.9 133.312 1222.91 132.455V119.773Z" fill="white"/>
<rect x="30" y="168" width="1200" height="5" fill="#D9D9D9" fill-opacity="0.5"/>
<rect x="30" y="168" width="400" height="5" fill="#FFD700"/>
</svg>
